<svg width="32" height="32" viewBox="0 0 32 32" fill="none" xmlns="http://www.w3.org/2000/svg">
<g clip-path="url(#clip0_9599_1560)">
<rect width="32" height="32" rx="16" fill="#FFDA15"/>
<path d="M16 0C7.17733 0 0 7.17733 0 16C0 24.8227 7.17733 32 16 32C24.8227 32 32 24.8227 32 16C32 7.17733 24.8227 0 16 0ZM16 30.6667C7.91333 30.6667 1.33333 24.0867 1.33333 16C1.33333 7.91333 7.91333 1.33333 16 1.33333C24.0867 1.33333 30.6667 7.91333 30.6667 16C30.6667 24.0867 24.0867 30.6667 16 30.6667ZM20.5347 25.064C20.4027 25.24 20.2027 25.332 19.9987 25.332C19.86 25.332 19.7227 25.2907 19.6027 25.2013C19.5867 25.1893 17.9507 24 16 24C14.0493 24 12.4133 25.1907 12.3973 25.2013C12.1 25.42 11.6853 25.3573 11.4653 25.0627C11.2467 24.7667 11.308 24.3507 11.6027 24.1307C11.684 24.0707 13.5987 22.6653 16.0013 22.6653C18.404 22.6653 20.3187 24.0707 20.4 24.1307C20.6947 24.3507 20.756 24.768 20.5373 25.0627L20.5347 25.064ZM26.64 11.5173C26.5573 11.8093 26.2893 12 26 12C25.94 12 25.8773 11.992 25.816 11.9733C22.8067 11.1147 20.8333 8.71333 20.1227 7.72133C19.9093 7.42 19.9787 7.00533 20.2773 6.79067C20.5787 6.57867 20.9933 6.64667 21.208 6.94533C21.836 7.824 23.576 9.94933 26.1813 10.6933C26.5347 10.7933 26.7413 11.164 26.64 11.5173ZM6.18267 11.9747C6.12133 11.9933 6.05867 12.0013 5.99867 12.0013C5.708 12.0013 5.44133 11.8093 5.35867 11.5187C5.25733 11.164 5.46267 10.7947 5.816 10.6947C8.42133 9.95067 10.1627 7.82667 10.7893 6.94667C11.004 6.64667 11.42 6.58 11.72 6.792C12.02 7.00667 12.088 7.42267 11.8747 7.72267C11.1653 8.71467 9.192 11.1173 6.18267 11.9747ZM23.7027 14.556L20.5347 16.668L23.7027 18.78C24.008 18.984 24.092 19.3987 23.888 19.704C23.7587 19.8973 23.548 20.0013 23.3333 20.0013C23.2053 20.0013 23.0773 19.9653 22.964 19.8893L18.964 17.2227C18.7787 17.0987 18.6667 16.8907 18.6667 16.668C18.6667 16.4453 18.7787 16.2373 18.964 16.1133L22.964 13.4467C23.2667 13.244 23.6827 13.324 23.888 13.632C24.092 13.9373 24.0093 14.352 23.7027 14.556ZM13.036 17.2227L9.036 19.8893C8.92267 19.9653 8.79333 20.0013 8.66667 20.0013C8.452 20.0013 8.24133 19.8973 8.112 19.704C7.908 19.3987 7.99067 18.984 8.29733 18.78L11.4653 16.668L8.29733 14.556C7.992 14.352 7.908 13.9373 8.112 13.632C8.31733 13.3253 8.732 13.244 9.036 13.4467L13.036 16.1133C13.2213 16.2373 13.3333 16.4453 13.3333 16.668C13.3333 16.8907 13.2213 17.0987 13.036 17.2227Z" fill="black"/>
</g>
<defs>
<clipPath id="clip0_9599_1560">
<rect width="32" height="32" rx="16" fill="white"/>
</clipPath>
</defs>
</svg>
