<svg width="30" height="30" viewBox="0 0 30 30" fill="none" xmlns="http://www.w3.org/2000/svg">
<path opacity="0.4" d="M15 0L27.9904 7.5V22.5L15 30L2.00962 22.5V7.5L15 0Z" fill="#6D8BFD"/>
<path d="M13.614 16.374C13.236 13.548 17.07 12.918 17.07 11.172C17.07 10.074 16.206 9.462 14.784 9.462C13.686 9.462 12.786 9.966 11.904 10.884L10.428 9.534C11.58 8.202 13.164 7.32 15.09 7.32C17.7 7.32 19.608 8.544 19.608 10.938C19.608 13.566 15.666 13.89 15.954 16.374H13.614ZM14.802 21.18C13.866 21.18 13.2 20.514 13.2 19.578C13.2 18.642 13.884 17.994 14.802 17.994C15.702 17.994 16.386 18.642 16.386 19.578C16.386 20.514 15.702 21.18 14.802 21.18Z" fill="white"/>
</svg>
