<svg width="108" height="108" viewBox="0 0 108 108" fill="none" xmlns="http://www.w3.org/2000/svg">
<g clip-path="url(#clip0_10078_886)">
<g filter="url(#filter0_f_10078_886)">
<circle cx="47" cy="42" r="34" fill="#F1DECE"/>
</g>
<path d="M32.4 21.6C32.4 21.6 75.6 21.6 75.6 48.6V86.4C75.6 86.4 32.4 86.4 32.4 48.6V21.6Z" fill="#2E2E2E" stroke="black" stroke-width="2"/>
<path d="M40.5 37.8C40.5 37.8 67.5 37.8 67.5 59.4C67.5 75.6 40.5 75.6 40.5 59.4V37.8Z" fill="#FEE9E9" stroke="black" stroke-width="2"/>
<path d="M48.6 48.6H51.3Z" fill="black"/>
<path d="M48.6 48.6H51.3" stroke="black" stroke-width="2"/>
<path d="M59.4 48.6H62.1Z" fill="black"/>
<path d="M59.4 48.6H62.1" stroke="black" stroke-width="2"/>
<path d="M51.3 62.1C51.3 63.45 59.4 63.45 59.4 62.1" stroke="black" stroke-width="1.5"/>
</g>
<defs>
<filter id="filter0_f_10078_886" x="12" y="7" width="70" height="70" filterUnits="userSpaceOnUse" color-interpolation-filters="sRGB">
<feFlood flood-opacity="0" result="BackgroundImageFix"/>
<feBlend mode="normal" in="SourceGraphic" in2="BackgroundImageFix" result="shape"/>
<feGaussianBlur stdDeviation="0.5" result="effect1_foregroundBlur_10078_886"/>
</filter>
<clipPath id="clip0_10078_886">
<rect width="108" height="108" fill="white"/>
</clipPath>
</defs>
</svg>
